<?xml version="1.0" encoding="UTF-8"?>
<svg version="1.1" xmlns="http://www.w3.org/2000/svg" width="512" height="176">
<path d="M0 0 C2.39887001 1.08486909 3.9406325 2.31026256 6 4 C9.14315928 4.31234752 9.14315928 4.31234752 11.5 2 C15.90071447 -1.08050013 20.85754898 -0.75872228 26 0 C30.45146251 2.18526342 33.18885145 4.9394521 36 9 C37.72446205 14.17338614 37.1846059 19.6476453 37.1875 25.0625 C37.19974609 26.27228516 37.21199219 27.48207031 37.22460938 28.72851562 C37.22654297 29.88158203 37.22847656 31.03464844 37.23046875 32.22265625 C37.23457764 33.28234619 37.23868652 34.34203613 37.24291992 35.43383789 C37 38 37 38 35 40 C31.46428571 39.46428571 31.46428571 39.46428571 30 38 C29.890712 36.20549474 29.84414563 34.40709464 29.82421875 32.609375 C29.78844727 30.95615234 29.78844727 30.95615234 29.75195312 29.26953125 C29.70927384 26.93898336 29.67786726 24.60819946 29.65820312 22.27734375 C29.55871799 15.72656539 29.55871799 15.72656539 27.140625 9.765625 C24.34552485 7.46017743 22.61722658 7 19 7 C16.12127423 8.3739373 14.25010563 9.74989437 12 12 C11.66125547 14.5699724 11.66125547 14.5699724 11.65625 17.55859375 C11.61177734 19.22051758 11.61177734 19.22051758 11.56640625 20.91601562 C11.54449219 22.07810547 11.52257812 23.24019531 11.5 24.4375 C11.45666189 26.72804675 11.40496231 29.01845497 11.34375 31.30859375 C11.32505859 32.32751709 11.30636719 33.34644043 11.28710938 34.39624023 C11 37 11 37 9 40 C5.125 39.125 5.125 39.125 4 38 C3.87867265 36.27887948 3.82034981 34.55323291 3.7890625 32.828125 C3.76070313 31.77109375 3.73234375 30.7140625 3.703125 29.625 C3.65140706 27.39078497 3.60702983 25.15638689 3.5703125 22.921875 C3.539375 21.8596875 3.5084375 20.7975 3.4765625 19.703125 C3.45674316 18.73020508 3.43692383 17.75728516 3.41650391 16.75488281 C2.82693483 12.85529462 1.34732791 10.02211083 -1.8125 7.625 C-4.91314004 6.73910285 -6.91616529 7.10054821 -10 8 C-12.25726011 9.89121793 -13.68646424 11.37292849 -15 14 C-15.15344209 15.88472859 -15.24959571 17.77427874 -15.31640625 19.6640625 C-15.35830078 20.78554687 -15.40019531 21.90703125 -15.44335938 23.0625 C-15.50233398 24.8259375 -15.50233398 24.8259375 -15.5625 26.625 C-15.60568359 27.80835937 -15.64886719 28.99171875 -15.69335938 30.2109375 C-15.79967426 33.14050328 -15.90170642 36.07015588 -16 39 C-17.65614657 39.38218767 -19.32457024 39.71395102 -21 40 C-23.60399807 37.39600193 -22.27439047 30.39373716 -22.29516602 26.86401367 C-22.31228728 24.83767593 -22.35613972 22.8130097 -22.40039062 20.78710938 C-22.40876953 19.50255859 -22.41714844 18.21800781 -22.42578125 16.89453125 C-22.44036377 15.71737549 -22.45494629 14.54021973 -22.4699707 13.32739258 C-21.74400066 8.18752471 -19.19245255 5.13282992 -15.5 1.625 C-10.35660418 -0.7630052 -5.57869453 -0.79586314 0 0 Z " fill="#ffffffff" transform="translate(374,74)"/>
<path d="M0 0 C4.94979377 2.82034138 8.52299029 6.81538714 10.54296875 12.1640625 C10.90839434 15.22034923 10.86146761 18.10647346 10.54296875 21.1640625 C7.64372509 22.61368433 5.0199652 22.38532731 1.78515625 22.48046875 C1.1221048 22.50124985 0.45905334 22.52203094 -0.22409058 22.54344177 C-2.34329819 22.60885481 -4.46263025 22.66778355 -6.58203125 22.7265625 C-8.01824206 22.76975559 -9.45444027 22.81337014 -10.890625 22.85742188 C-14.41262719 22.96452749 -17.9347695 23.06581825 -21.45703125 23.1640625 C-19.19355389 27.12676929 -17.75403551 29.34977181 -13.45703125 31.1640625 C-8.48874649 31.71609414 -6.47287435 31.72841978 -2.08203125 29.2890625 C0.51134522 27.26547589 0.51134522 27.26547589 2.54296875 25.1640625 C5.16796875 25.5390625 5.16796875 25.5390625 7.54296875 26.1640625 C7.98046875 28.2890625 7.98046875 28.2890625 7.54296875 31.1640625 C3.78379705 35.50728631 -0.73119354 38.77595441 -6.51953125 39.37890625 C-13.07703341 39.65582779 -17.74769758 38.01133546 -23.20703125 34.2890625 C-27.87636333 29.87913776 -29.55431411 25.21199572 -29.76953125 18.9140625 C-29.67288526 13.02832157 -27.81112482 8.62516032 -23.73828125 4.3671875 C-17.09538053 -1.54386823 -8.57801135 -2.91843311 0 0 Z M-16.45703125 7.1640625 C-18.53708521 9.03558975 -19.84817191 10.82390347 -21.45703125 13.1640625 C-21.45703125 13.8240625 -21.45703125 14.4840625 -21.45703125 15.1640625 C-13.20703125 15.1640625 -4.95703125 15.1640625 3.54296875 15.1640625 C0.44597851 8.97008201 -0.64770832 7.46725192 -6.83203125 5.3515625 C-10.54177643 5.0865807 -13.01415036 5.75002213 -16.45703125 7.1640625 Z " fill="#ffffffff" transform="translate(78.45703125,74.8359375)"/>
<path d="M0 0 C5.3174032 3.13024491 8.5433049 7.2002272 10.5078125 13.09375 C10.63563036 15.76769964 10.55173121 18.41470857 10.5078125 21.09375 C7.60856884 22.54337183 4.98480895 22.31501481 1.75 22.41015625 C1.08694855 22.43093735 0.42389709 22.45171844 -0.25924683 22.47312927 C-2.37845444 22.53854231 -4.4977865 22.59747105 -6.6171875 22.65625 C-8.05339831 22.69944309 -9.48959652 22.74305764 -10.92578125 22.78710938 C-14.44778344 22.89421499 -17.96992575 22.99550575 -21.4921875 23.09375 C-19.22871014 27.05645679 -17.78919176 29.27945931 -13.4921875 31.09375 C-8.52390274 31.64578164 -6.5080306 31.65810728 -2.1171875 29.21875 C0.47618897 27.19516339 0.47618897 27.19516339 2.5078125 25.09375 C5.1328125 25.46875 5.1328125 25.46875 7.5078125 26.09375 C7.9453125 28.21875 7.9453125 28.21875 7.5078125 31.09375 C3.99798777 35.25467265 -0.13857183 38.00117537 -5.4921875 39.09375 C-12.5530271 39.6541341 -17.10419249 38.2210957 -23.1796875 34.40625 C-27.64181104 29.94412646 -29.71766778 25.36292987 -29.9296875 19.03125 C-29.58391141 12.17859662 -27.57591705 7.82587991 -22.4921875 3.21875 C-16.34041183 -1.97763627 -7.58000294 -2.75636471 0 0 Z M-19.9296875 10.09375 C-21.80000952 12.06476343 -21.80000952 12.06476343 -21.4921875 15.09375 C-13.2421875 15.09375 -4.9921875 15.09375 3.5078125 15.09375 C0.41171941 9.93359485 -1.61823771 7.03090754 -7.3671875 5.15625 C-12.45226419 5.05454847 -16.04645606 6.90750882 -19.9296875 10.09375 Z " fill="#ffffffff" transform="translate(247.4921875,74.90625)"/>
<path d="M0 0 C2.6875 2.375 2.6875 2.375 5 5 C8.70414639 8.70414639 12.95858001 8.9120171 18 9 C19.051875 8.79375 20.10375 8.5875 21.1875 8.375 C24.98266344 7.86897821 26.81789644 8.97502501 30 11 C32.47691739 14.71537608 32.6403379 17.69457016 32 22 C30.41390169 25.244292 29.09846348 26.60729468 25.68359375 27.828125 C23.9254587 28.32071724 22.16497657 28.80500266 20.40234375 29.28125 C17.05251363 30.2834756 15.31004255 31.35024531 13 34 C12.29123952 35.67025725 11.62839924 37.36037924 11 39.0625 C9.83901526 42.17375554 9.1870796 43.8129204 6.8125 46.1875 C2.67409414 47.38303947 -0.89684078 47.3779266 -5 46 C-7.88418249 42.97512568 -8.86851171 41.07382102 -9.375 36.9375 C-9 34 -9 34 -7.9375 31.625 C-6.60610807 27.89710261 -6.78360082 24.70417604 -8 21 C-9.39577525 18.95036364 -9.39577525 18.95036364 -11.0625 17 C-13.32096169 14.22998313 -14.46933495 12.41986832 -14.625 8.8125 C-13.93744809 4.61843338 -13.06677952 2.89153497 -10 0 C-6.1544104 -1.2818632 -3.93271581 -0.94927623 0 0 Z M-8.6875 3.625 C-11.24361768 5.82506378 -11.24361768 5.82506378 -11.625 9 C-11.22979528 12.15427259 -11.22979528 12.15427259 -8.8125 14.4375 C-6.15378693 16.21246878 -6.15378693 16.21246878 -3.375 16 C-0.42851865 14.75937627 0.59858374 13.88068899 2 11 C1.92695236 7.42066548 1.68301127 5.68301127 -0.875 3.125 C-4.1633824 1.38409167 -5.53316997 1.71773068 -8.6875 3.625 Z M17 14 C15.6690684 17.39969811 15.6690684 17.39969811 16 21 C17.99020117 23.65884601 17.99020117 23.65884601 21 25 C23.89481608 24.93107581 25.40685358 24.38861317 27.8125 22.8125 C29.58260835 20.11075568 29.39415803 18.15326426 29 15 C27.56222319 12.91522362 26.40201761 12.18760822 24.125 11.125 C20.84819317 10.93224666 19.45807598 11.87409645 17 14 Z M3 17 C1.74458443 20.76624671 2.62938042 22.37188934 4 26 C7.26954202 25.43628586 8.82575883 24.50037734 11 22 C10.67 21.01 10.34 20.02 10 19 C6.48809191 17.77030122 6.48809191 17.77030122 3 17 Z M-3.8125 32.1875 C-5.40882057 34.62398929 -6 36.05861032 -6 39 C-4.06307631 42.02033737 -4.06307631 42.02033737 -1 44 C2.15372409 44.33550847 2.15372409 44.33550847 5 43 C7.15254366 40.85701707 7.15254366 40.85701707 8 38 C7.18795587 34.82564566 6.31819425 33.31819425 4 31 C-0.12830046 30.55537992 -0.12830046 30.55537992 -3.8125 32.1875 Z " fill="#535659" transform="translate(421,22)"/>
<path d="M0 0 C5.58322432 2.5467339 9.30041222 7.0054882 12.3125 12.3125 C14.04204113 19.07343352 13.42702601 24.85498784 10 31 C5.63010719 36.05987588 1.77971301 38.93661493 -4.875 39.8125 C-11.17690745 40.24196332 -15.76256236 39.2170433 -20.75 35.25 C-25.6135621 30.68153043 -27.16976807 26.78483175 -27.4375 20.125 C-27.24693313 13.14332302 -25.57663647 8.44780464 -20.5 3.625 C-13.81204592 -0.72217015 -7.91895829 -0.73750485 0 0 Z M-16 9 C-19.20104966 12.7907167 -20.89812276 16.00801507 -21 21 C-19.38764222 26.19537508 -17.52251212 28.98499192 -13 32 C-9.88111322 33.55944339 -7.4545855 33.28316275 -4 33 C-0.36611788 31.63264967 2.38674281 29.71216964 4.9375 26.75 C6.75769031 22.03891921 6.82090146 17.90103495 4.8125 13.25 C1.77069501 9.47396623 -0.64489856 7.37641707 -5.375 6.0625 C-9.79302462 5.98632716 -12.18965682 6.7713087 -16 9 Z " fill="#ffffffff" transform="translate(330,74)"/>
<path d="M0 0 C2.4375 1.625 2.4375 1.625 4.4375 3.625 C4.0625 5.75 4.0625 5.75 3.4375 7.625 C1.875 8.3125 1.875 8.3125 -0.5625 8.625 C-1.67625 8.13 -2.79 7.635 -3.9375 7.125 C-7.89358774 5.48799818 -9.52408093 5.43183073 -13.5625 6.625 C-14.5525 7.285 -15.5425 7.945 -16.5625 8.625 C-16.21463292 10.60036745 -16.21463292 10.60036745 -15.5625 12.625 C-12.72433209 14.04408396 -9.9635507 14.04261069 -6.8125 14.375 C2.70727136 15.72241379 2.70727136 15.72241379 6.4375 20.625 C7.8791504 24.69011887 7.68842341 27.75513218 6.5 31.875 C3.67353771 35.64361638 0.94897892 37.31593153 -3.5625 38.625 C-9.77529342 39.40819917 -15.31886754 39.37045175 -20.5625 35.625 C-22.63461873 33.70358082 -23.95158308 32.01696755 -25.5625 29.625 C-25.375 27.25 -25.375 27.25 -24.5625 25.625 C-22.76171875 24.94140625 -22.76171875 24.94140625 -20.5625 24.625 C-18.95703125 25.83984375 -18.95703125 25.83984375 -17.375 27.5625 C-14.53734797 30.19222063 -12.76500684 31.09792747 -8.875 31.1875 C-5.3135471 30.95047498 -3.10495388 30.27799535 -0.5625 27.625 C-1.8714572 24.50302522 -1.8714572 24.50302522 -4.5625 22.625 C-6.31016859 22.47079395 -8.06092223 22.35050036 -9.8125 22.25 C-15.34510954 21.77929369 -19.23254488 20.72195961 -23.4375 16.9375 C-25.11263184 13.49417344 -25.32274572 10.31965208 -24.5625 6.625 C-19.6969018 -2.50550526 -8.87069172 -3.42377575 0 0 Z " fill="#ffffffff" transform="translate(36.5625,75.375)"/>
<path d="M0 0 C1.90625 1.10546875 1.90625 1.10546875 4.65625 3.10546875 C4.65625 4.75546875 4.65625 6.40546875 4.65625 8.10546875 C3.09375 8.79296875 3.09375 8.79296875 0.65625 9.10546875 C-0.436875 8.61046875 -1.53 8.11546875 -2.65625 7.60546875 C-6.87423046 5.88968009 -8.97811596 6.01406024 -13.34375 7.10546875 C-14.33375 7.76546875 -15.32375 8.42546875 -16.34375 9.10546875 C-15.99588292 11.0808362 -15.99588292 11.0808362 -15.34375 13.10546875 C-12.50558209 14.52455271 -9.7448007 14.52307944 -6.59375 14.85546875 C-0.54088807 15.67493313 2.63705426 16.51210219 6.65625 21.10546875 C8.2110169 24.21500254 7.94269437 26.66813636 7.65625 30.10546875 C5.90271388 33.61254099 4.28696915 35.63242939 1.15625 37.98046875 C-4.71617928 39.8680353 -11.01196622 40.47275737 -16.828125 38.0859375 C-20.21915865 36.03770367 -22.11911993 34.44241385 -24.34375 31.10546875 C-24.46875 28.41796875 -24.46875 28.41796875 -24.34375 26.10546875 C-22.71875 25.29296875 -22.71875 25.29296875 -20.34375 25.10546875 C-17.21875 27.48046875 -17.21875 27.48046875 -14.34375 30.10546875 C-10.60400568 31.97534091 -5.87584172 31.41188709 -1.84375 30.60546875 C-1.34875 30.44046875 -0.85375 30.27546875 -0.34375 30.10546875 C-0.34375 28.45546875 -0.34375 26.80546875 -0.34375 25.10546875 C-3.53592731 23.23651248 -5.98385663 22.86552141 -9.65625 22.73046875 C-14.97527749 22.33225279 -18.03041641 21.22575262 -22.34375 18.10546875 C-24.82761059 14.37967786 -24.7241712 12.51835473 -24.34375 8.10546875 C-22.66750739 4.41773502 -20.77121406 2.24763379 -17.34375 0.10546875 C-11.96102861 -1.68877171 -5.35707536 -2.04461709 0 0 Z " fill="#ffffffff" transform="translate(495.34375,74.89453125)"/>
<path d="M0 0 C1.66611905 -0.042721 3.33382885 -0.04063832 5 0 C6.75630015 1.75630015 6.15056804 4.26124762 6.17578125 6.64453125 C6.19962891 7.79630859 6.22347656 8.94808594 6.24804688 10.13476562 C6.29080719 12.57469523 6.3221704 15.01485279 6.34179688 17.45507812 C6.36951172 18.61072266 6.39722656 19.76636719 6.42578125 20.95703125 C6.44036377 22.01897705 6.45494629 23.08092285 6.4699707 24.17504883 C7.12194423 27.6499386 8.28487716 28.8103234 11 31 C13.7798816 32.3899408 15.9186326 32.18488204 19 32 C21.55591281 31.14802906 22.64231473 30.56471964 24.08569336 28.28588867 C25.20725286 25.48184018 25.30478331 23.19337122 25.37890625 20.17578125 C25.41306641 19.06525391 25.44722656 17.95472656 25.48242188 16.81054688 C25.50884766 15.65619141 25.53527344 14.50183594 25.5625 13.3125 C25.62214465 11.0168153 25.68572466 8.72122826 25.75390625 6.42578125 C25.77783447 5.40911377 25.8017627 4.39244629 25.82641602 3.3449707 C26 1 26 1 27 0 C28.66617115 -0.04063832 30.33388095 -0.042721 32 0 C34.09242402 4.18484804 33.22935851 9.65210901 33.25 14.25 C33.270625 15.38308594 33.29125 16.51617187 33.3125 17.68359375 C33.34487408 24.58736683 33.16125341 29.57291391 28.28125 34.86328125 C27.6934375 35.34152344 27.105625 35.81976563 26.5 36.3125 C25.61828125 37.04919922 25.61828125 37.04919922 24.71875 37.80078125 C20.85245953 40.49839755 16.53489864 40.57393548 12 40 C6.1646705 38.15337674 2.91715881 35.48425857 0 30 C-1.04944781 26.85165657 -1.12915506 24.61256573 -1.1328125 21.30859375 C-1.13410156 20.19935547 -1.13539063 19.09011719 -1.13671875 17.94726562 C-1.13285156 16.78904297 -1.12898437 15.63082031 -1.125 14.4375 C-1.12886719 13.27541016 -1.13273438 12.11332031 -1.13671875 10.91601562 C-1.13542969 9.80806641 -1.13414062 8.70011719 -1.1328125 7.55859375 C-1.13168457 6.54079834 -1.13055664 5.52300293 -1.12939453 4.47436523 C-1 2 -1 2 0 0 Z " fill="#ffffffff" transform="translate(138,74)"/>
<path d="M0 0 C4.22997458 3.92046424 7.37863915 8.0794102 7.70776367 13.97875977 C7.73217505 17.29844446 7.7481526 20.6177186 7.75 23.9375 C7.76224609 25.09958984 7.77449219 26.26167969 7.78710938 27.45898438 C7.78904297 28.56693359 7.79097656 29.67488281 7.79296875 30.81640625 C7.79707764 31.83420166 7.80118652 32.85199707 7.80541992 33.90063477 C7.5625 36.375 7.5625 36.375 5.5625 38.375 C2.02678571 37.83928571 2.02678571 37.83928571 0.5625 36.375 C0.46541937 34.58013722 0.43047531 32.78184073 0.421875 30.984375 C0.39287109 29.33115234 0.39287109 29.33115234 0.36328125 27.64453125 C0.329655 25.31397337 0.31121557 22.98314273 0.30859375 20.65234375 C0.40507868 13.82096126 0.40507868 13.82096126 -2.83203125 8.140625 C-5.62061436 6.25091051 -7.06918462 5.375 -10.4375 5.375 C-13.70384817 6.29981711 -13.70384817 6.29981711 -16.4375 8.375 C-19.1277858 14.00518575 -18.88169614 20.13280269 -19.0625 26.25 C-19.10117187 27.31992188 -19.13984375 28.38984375 -19.1796875 29.4921875 C-19.27352452 32.11962408 -19.35921557 34.74706171 -19.4375 37.375 C-21.09364657 37.75718767 -22.76207024 38.08895102 -24.4375 38.375 C-27.19139164 35.62110836 -25.72244749 27.39239386 -25.75 23.6875 C-25.77900391 22.40681641 -25.80800781 21.12613281 -25.83789062 19.80664062 C-25.91667384 8.15278543 -25.91667384 8.15278543 -21.4375 3.375 C-20.756875 2.611875 -20.07625 1.84875 -19.375 1.0625 C-14.26929355 -3.38440562 -5.77375388 -2.72941093 0 0 Z " fill="#ffffffff" transform="translate(289.4375,75.625)"/>
<path d="M0 0 C1.90625 1.1015625 1.90625 1.1015625 4.59375 3.1015625 C4.59375 4.7515625 4.59375 6.4015625 4.59375 8.1015625 C1.01970891 9.29290953 -0.17876999 9.21092789 -3.65625 7.5390625 C-7.50894624 5.70966406 -10.34569166 6.10424437 -14.38671875 7.25390625 C-17.61646634 8.60952564 -18.81629097 9.98789273 -20.40625 13.1015625 C-21.7355039 17.84140206 -21.94387538 20.98495594 -19.78125 25.4765625 C-16.33663702 29.28376632 -14.12941123 30.91358127 -8.96875 31.4765625 C-5.1318395 31.07267718 -2.80482997 29.83861448 0.59375 28.1015625 C2.96875 28.4140625 2.96875 28.4140625 4.59375 29.1015625 C4.96875 31.3515625 4.96875 31.3515625 4.59375 34.1015625 C-0.97472014 38.65758353 -5.3297234 39.57333094 -12.40625 39.1015625 C-19.42300116 37.72031227 -23.39424643 33.86466155 -27.40625 28.1015625 C-30.28319111 22.70729791 -29.60749535 16.94240039 -28.40625 11.1015625 C-22.92626254 0.33730142 -11.50675833 -4.29635457 0 0 Z " fill="#ffffffff" transform="translate(124.40625,74.8984375)"/>
<path d="M0 0 C2.375 1.625 2.375 1.625 4.375 3.625 C4 6.25 4 6.25 3.375 8.625 C0.33775791 8.20119878 -2.26590246 7.79073732 -5.0625 6.5 C-8.67664828 5.26590059 -10.94603184 5.65685049 -14.625 6.625 C-18.03910237 8.74067417 -20.32385769 10.72157307 -21.625 14.625 C-22.08696347 21.66580733 -22.08696347 21.66580733 -18.625 27.625 C-14.17492712 30.80362349 -10.87269225 30.81770625 -5.67578125 30.14453125 C-3.33585278 29.6730115 -3.33585278 29.6730115 -0.625 27.625 C1.5625 28 1.5625 28 3.375 28.625 C4.125 30.375 4.125 30.375 4.375 32.625 C1.48485383 36.71937375 -1.80166218 37.76924652 -6.625 38.625 C-13.30648773 38.72167748 -18.25205875 37.62836799 -23.625 33.625 C-28.41235621 28.16617046 -30.0039578 23.50315096 -29.8984375 16.25390625 C-29.18066978 9.35308231 -25.53229348 5.02361182 -20.30859375 0.75390625 C-14.67724132 -3.02210501 -6.04745572 -2.29386251 0 0 Z " fill="#ffffffff" transform="translate(459.625,75.375)"/>
<path d="M0 0 C4.41312574 2.12775705 7.47505015 4.79175025 10 9 C10.59995097 11.99471322 10.86715584 14.95122645 11 18 C9.02 18.99 9.02 18.99 7 20 C4.51313488 17.98682348 3.83005814 16.56742071 2.625 13.5 C0.83540634 9.64549058 -0.05546042 8.46773566 -4 7 C-7.69824686 7.07547443 -9.43054549 7.53828013 -12.3125 9.875 C-15.03725946 13.30617858 -15.15928444 16.30067985 -15.31640625 20.54296875 C-15.35830078 21.61611328 -15.40019531 22.68925781 -15.44335938 23.79492188 C-15.50233398 25.47424805 -15.50233398 25.47424805 -15.5625 27.1875 C-15.60568359 28.31865234 -15.64886719 29.44980469 -15.69335938 30.61523438 C-15.79949099 33.41003354 -15.90154385 36.20492162 -16 39 C-17.65614657 39.38218767 -19.32457024 39.71395102 -21 40 C-23.60665363 37.39334637 -22.31862333 30.44917397 -22.35009766 26.91894531 C-22.36657049 25.56688113 -22.39374553 24.21490088 -22.43212891 22.86328125 C-22.78908906 10.22378782 -22.78908906 10.22378782 -19.7890625 5.7578125 C-13.59766284 -0.36421574 -8.50920869 -1.03911639 0 0 Z " fill="#ffffffff" transform="translate(200,74)"/>
<path d="M0 0 C1.66611905 -0.042721 3.33382885 -0.04063832 5 0 C6 1 6 1 6.11352539 4.69360352 C6.11336624 6.33871292 6.10766988 7.98382731 6.09765625 9.62890625 C6.0962413 10.49313705 6.09482635 11.35736786 6.09336853 12.24778748 C6.08775239 15.01939292 6.07519719 17.7909188 6.0625 20.5625 C6.05748708 22.4368478 6.05292381 24.31119685 6.04882812 26.18554688 C6.03777772 30.79039544 6.0205023 35.39518421 6 40 C3.525 40.495 3.525 40.495 1 41 C-1.5117966 37.23230509 -1.27138552 34.26248867 -1.23046875 29.90234375 C-1.23001053 29.11227432 -1.22955231 28.3222049 -1.2290802 27.50819397 C-1.22606142 25.83967586 -1.21818629 24.17116049 -1.20581055 22.50268555 C-1.18754459 19.94374655 -1.18530098 17.38516929 -1.18554688 14.82617188 C-1.18063185 13.20572603 -1.1748036 11.58528264 -1.16796875 9.96484375 C-1.16685593 9.19712143 -1.1657431 8.42939911 -1.16459656 7.63841248 C-1.11607994 2.23215987 -1.11607994 2.23215987 0 0 Z " fill="#ffffffff" transform="translate(419,73)"/>
<path d="M0 0 C1.2065625 0.9590625 1.2065625 0.9590625 2.4375 1.9375 C7.24716164 5.14394109 12.61394245 5.46785442 18.1875 4.375 C21.98266344 3.86897821 23.81789644 4.97502501 27 7 C29.46987627 10.7048144 29.66165854 13.7034072 29 18 C27.4375 20.9375 27.4375 20.9375 25 23 C21.22451218 24.09832373 19.07006024 24.46978255 15.4375 22.875 C13.63191088 21.4860853 11.89009057 20.01341384 10.1875 18.5 C6.79410827 15.56732986 3.23558491 14.38751919 -1 13 C-0.9278125 12.22914062 -0.855625 11.45828125 -0.78125 10.6640625 C-0.64203125 9.15972656 -0.64203125 9.15972656 -0.5 7.625 C-0.4071875 6.62726562 -0.314375 5.62953125 -0.21875 4.6015625 C0.02792947 2.10296264 0.02792947 2.10296264 0 0 Z M14 10 C12.6690684 13.39969811 12.6690684 13.39969811 13 17 C14.99020117 19.65884601 14.99020117 19.65884601 18 21 C20.89481608 20.93107581 22.40685358 20.38861317 24.8125 18.8125 C26.58260835 16.11075568 26.39415803 14.15326426 26 11 C24.56222319 8.91522362 23.40201761 8.18760822 21.125 7.125 C17.84819317 6.93224666 16.45807598 7.87409645 14 10 Z " fill="#03A7CA" transform="translate(424,26)"/>
<path d="M0 0 C3 2 3 2 3.546875 4.13671875 C3.86554417 8.13846812 4.05654793 11.63557999 3.4375 15.625 C2.87627338 19.95446247 3.75836094 22.83685726 5 27 C1 28.33333333 -3 29.66666667 -7 31 C-6.938125 29.96875 -6.87625 28.9375 -6.8125 27.875 C-7.06709551 22.61335953 -8.63573243 19.48120479 -12.1875 15.625 C-14.34639641 12.49832244 -14.58457515 10.65704655 -14.39453125 6.93359375 C-13.76338197 3.84033739 -12.25655945 2.12761319 -10 0 C-6.25105057 -1.24964981 -3.84864723 -0.75598428 0 0 Z M-8.6875 3.625 C-11.24361768 5.82506378 -11.24361768 5.82506378 -11.625 9 C-11.22979528 12.15427259 -11.22979528 12.15427259 -8.8125 14.4375 C-6.15378693 16.21246878 -6.15378693 16.21246878 -3.375 16 C-0.42851865 14.75937627 0.59858374 13.88068899 2 11 C1.92695236 7.42066548 1.68301127 5.68301127 -0.875 3.125 C-4.1633824 1.38409167 -5.53316997 1.71773068 -8.6875 3.625 Z " fill="#FE8100" transform="translate(421,22)"/>
<path d="M0 0 C1.32 0 2.64 0 4 0 C4.66 1.65 5.32 3.3 6 5 C6.37125 4.175 6.7425 3.35 7.125 2.5 C7.74375 1.675 8.3625 0.85 9 0 C12.1875 -0.3125 12.1875 -0.3125 15 0 C15.66 1.65 16.32 3.3 17 5 C17.66 3.35 18.32 1.7 19 0 C20.875 0.3125 20.875 0.3125 23 1 C23.66 1.99 24.32 2.98 25 4 C25.33 2.68 25.66 1.36 26 0 C26.99 0 27.98 0 29 0 C28.69078116 1.45903258 28.37751201 2.91720722 28.0625 4.375 C27.80146484 5.59316406 27.80146484 5.59316406 27.53515625 6.8359375 C27 9 27 9 26 11 C25.01 11 24.02 11 23 11 C22.34 9.35 21.68 7.7 21 6 C20.34 7.65 19.68 9.3 19 11 C17.68 11 16.36 11 15 11 C13.68373308 7.38026598 13 4.90432869 13 1 C12.34 1 11.68 1 11 1 C10.81824219 1.66386719 10.63648438 2.32773438 10.44921875 3.01171875 C7.60869565 12.98996656 7.60869565 12.98996656 5 16 C2.3125 16.3125 2.3125 16.3125 0 16 C0.7425 15.401875 1.485 14.80375 2.25 14.1875 C4.36152401 11.17483945 4.36152401 11.17483945 3.375 8.21875 C2.33985174 5.42960051 1.23271597 2.70723392 0 0 Z " fill="#ffffffff" transform="translate(391,131)"/>
<path d="M0 0 C0.66 0 1.32 0 2 0 C2 0.99 2 1.98 2 3 C3.093125 2.896875 4.18625 2.79375 5.3125 2.6875 C6.529375 2.790625 7.74625 2.89375 9 3 C10.9375 5.5 10.9375 5.5 12 8 C12.66 6.35 13.32 4.7 14 3 C15.32 3.33 16.64 3.66 18 4 C17.02373969 6.31376679 16.04414868 8.62602063 15.0625 10.9375 C14.78470703 11.59685547 14.50691406 12.25621094 14.22070312 12.93554688 C12.11328125 17.88671875 12.11328125 17.88671875 11 19 C9.33382885 19.04063832 7.66611905 19.042721 6 19 C6 18.34 6 17.68 6 17 C6.99 16.67 7.98 16.34 9 16 C8.53199289 11.94393835 8.12046792 8.53411321 6 5 C4.68 5 3.36 5 2 5 C2.33 6.98 2.66 8.96 3 11 C3.99 11.33 4.98 11.66 6 12 C6 12.66 6 13.32 6 14 C4.02 14 2.04 14 0 14 C0 11.03 0 8.06 0 5 C-0.99 5 -1.98 5 -3 5 C-3 4.34 -3 3.68 -3 3 C-2.01 3 -1.02 3 0 3 C0 2.01 0 1.02 0 0 Z " fill="#ffffffff" transform="translate(340,128)"/>
<path d="M0 0 C0.90492187 0.02320313 1.80984375 0.04640625 2.7421875 0.0703125 C4.10730469 0.09738281 4.10730469 0.09738281 5.5 0.125 C6.19867188 0.14820313 6.89734375 0.17140625 7.6171875 0.1953125 C7.69852541 2.11127218 7.75653117 4.02823182 7.8046875 5.9453125 C7.83949219 7.01265625 7.87429687 8.08 7.91015625 9.1796875 C7.58366691 12.54035113 7.03864273 13.87359684 4.6171875 16.1953125 C-1.40971833 16.94867573 -1.40971833 16.94867573 -4.3203125 14.6953125 C-4.6709375 14.2003125 -5.0215625 13.7053125 -5.3828125 13.1953125 C-2.09304442 12.09872314 -0.66977483 12.39578112 2.6171875 13.1953125 C2.9471875 12.5353125 3.2771875 11.8753125 3.6171875 11.1953125 C2.225 11.3190625 2.225 11.3190625 0.8046875 11.4453125 C-2.3828125 11.1953125 -2.3828125 11.1953125 -4.3203125 9.5078125 C-5.66514875 6.58081596 -5.41396912 5.20946261 -4.3828125 2.1953125 C-2.3828125 0.1953125 -2.3828125 0.1953125 0 0 Z M0.6171875 2.1953125 C-0.3728125 3.1853125 -1.3628125 4.1753125 -2.3828125 5.1953125 C-2.0528125 6.1853125 -1.7228125 7.1753125 -1.3828125 8.1953125 C0.52427593 9.10959589 0.52427593 9.10959589 2.6171875 9.1953125 C3.2771875 8.5353125 3.9371875 7.8753125 4.6171875 7.1953125 C4.53147089 5.10240093 4.53147089 5.10240093 3.6171875 3.1953125 C2.6271875 2.8653125 1.6371875 2.5353125 0.6171875 2.1953125 Z " fill="#ffffffff" transform="translate(114.3828125,130.8046875)"/>
<path d="M0 0 C9.10714286 -0.60714286 9.10714286 -0.60714286 13.125 2.125 C15.35696906 5.54735256 15.83328611 7.00022668 15 11 C13.125 13.875 13.125 13.875 10 16 C6.55181651 16.41588778 3.49485035 16.23299002 0 16 C0 10.72 0 5.44 0 0 Z M3 2 C3 5.96 3 9.92 3 14 C6.43230448 13.73606499 6.43230448 13.73606499 10 13 C12.32038095 10.17431454 12.32038095 10.17431454 11.8125 6.9375 C11.26245502 3.70259047 11.26245502 3.70259047 8 2 C6.35 2 4.7 2 3 2 Z " fill="#ffffffff" transform="translate(46,126)"/>
<path d="M0 0 C0.99 0 1.98 0 3 0 C3.66 1.32 4.32 2.64 5 4 C5.66 2.68 6.32 1.36 7 0 C7.99 0 8.98 0 10 0 C10.33 1.65 10.66 3.3 11 5 C11.66 5 12.32 5 13 5 C13.33 3.35 13.66 1.7 14 0 C14.99 0 15.98 0 17 0 C16.01 3.63 15.02 7.26 14 11 C10 10 10 10 8.75 7.9375 C8.5025 7.298125 8.255 6.65875 8 6 C7.34 7.65 6.68 9.3 6 11 C5.01 11 4.02 11 3 11 C2.49384702 9.73160474 1.99530901 8.46016898 1.5 7.1875 C1.2215625 6.47980469 0.943125 5.77210938 0.65625 5.04296875 C0 3 0 3 0 0 Z " fill="#ffffffff" transform="translate(220,131)"/>
<path d="M0 0 C0.99 0 1.98 0 3 0 C3 2.31 3 4.62 3 7 C4.423125 6.9071875 4.423125 6.9071875 5.875 6.8125 C6.90625 6.874375 7.9375 6.93625 9 7 C11.67927341 11.01891012 11.15601248 13.24161923 11 18 C10.01 18 9.02 18 8 18 C7.67 15.36 7.34 12.72 7 10 C6.01 10.33 5.02 10.66 4 11 C3.67 13.31 3.34 15.62 3 18 C2.01 18 1.02 18 0 18 C0 12.06 0 6.12 0 0 Z " fill="#ffffffff" transform="translate(422,124)"/>
<path d="M0 0 C0.99 0 1.98 0 3 0 C3 2.31 3 4.62 3 7 C3.969375 6.979375 4.93875 6.95875 5.9375 6.9375 C9 7 9 7 10 8 C10.07205511 9.68608966 10.08386068 11.37500659 10.0625 13.0625 C10.05347656 13.98160156 10.04445313 14.90070313 10.03515625 15.84765625 C10.02355469 16.55792969 10.01195312 17.26820313 10 18 C9.01 18 8.02 18 7 18 C6.67 15.36 6.34 12.72 6 10 C5.01 10 4.02 10 3 10 C3 12.64 3 15.28 3 18 C2.01 18 1.02 18 0 18 C0 12.06 0 6.12 0 0 Z " fill="#ffffffff" transform="translate(254,124)"/>
<path d="M0 0 C1.7325 0.1546875 1.7325 0.1546875 3.5 0.3125 C5.5 3.3125 5.5 3.3125 5.5 6.3125 C2.86 6.6425 0.22 6.9725 -2.5 7.3125 C0.63349732 8.35699911 1.48968256 8.24673645 4.5 7.3125 C4.5 8.3025 4.5 9.2925 4.5 10.3125 C3.5 11.3125 3.5 11.3125 0.125 11.625 C-3.5 11.3125 -3.5 11.3125 -5.5 9.625 C-6.76326211 6.70370636 -6.52016252 5.29451353 -5.5 2.3125 C-3.5 0.3125 -3.5 0.3125 0 0 Z M-1.5 2.3125 C-1.83 2.9725 -2.16 3.6325 -2.5 4.3125 C-0.85 4.3125 0.8 4.3125 2.5 4.3125 C2.17 3.6525 1.84 2.9925 1.5 2.3125 C0.51 2.3125 -0.48 2.3125 -1.5 2.3125 Z " fill="#ffffffff" transform="translate(290.5,130.6875)"/>
<path d="M0 0 C2.04040776 2.04040776 3 3.08325244 3 6 C0.36 6.33 -2.28 6.66 -5 7 C-2 8.33333333 -2 8.33333333 1 7 C1.33 7.99 1.66 8.98 2 10 C-0.79870027 11.39935013 -2.90498792 11.25265405 -6 11 C-7.9375 9.9375 -7.9375 9.9375 -9 8 C-8.8125 4.375 -8.8125 4.375 -8 1 C-5.17116253 -0.41441874 -3.12623255 -0.31900332 0 0 Z M-4 2 C-4.66 2.66 -5.32 3.32 -6 4 C-4.02 4 -2.04 4 0 4 C-1.32 3.34 -2.64 2.68 -4 2 Z " fill="#ffffffff" transform="translate(444,131)"/>
<path d="M0 0 C3.5625 0.1875 3.5625 0.1875 5.5625 2.1875 C5.5625 3.5075 5.5625 4.8275 5.5625 6.1875 C2.9225 6.1875 0.2825 6.1875 -2.4375 6.1875 C-2.4375 6.8475 -2.4375 7.5075 -2.4375 8.1875 C1.0275 7.6925 1.0275 7.6925 4.5625 7.1875 C4.5625 8.1775 4.5625 9.1675 4.5625 10.1875 C3.5625 11.1875 3.5625 11.1875 0.125 11.4375 C-1.050625 11.355 -2.22625 11.2725 -3.4375 11.1875 C-5.4375 8.1875 -5.4375 8.1875 -5.125 4.5625 C-4.24274345 0.23142237 -4.24274345 0.23142237 0 0 Z M-1.4375 2.1875 C-1.7675 2.8475 -2.0975 3.5075 -2.4375 4.1875 C-0.7875 4.1875 0.8625 4.1875 2.5625 4.1875 C2.2325 3.5275 1.9025 2.8675 1.5625 2.1875 C0.5725 2.1875 -0.4175 2.1875 -1.4375 2.1875 Z " fill="#ffffffff" transform="translate(462.4375,130.8125)"/>
<path d="M0 0 C1.670625 0.061875 1.670625 0.061875 3.375 0.125 C5.08966036 3.55432071 4.42904056 7.34216065 4.375 11.125 C1.405 11.125 -1.565 11.125 -4.625 11.125 C-5.25 8.75 -5.25 8.75 -5.625 6.125 C-3.625 4.125 -3.625 4.125 -1.625 3.125 C-2.945 2.795 -4.265 2.465 -5.625 2.125 C-3.625 0.125 -3.625 0.125 0 0 Z M-1.625 6.125 C-1.625 7.115 -1.625 8.105 -1.625 9.125 C-0.635 8.795 0.355 8.465 1.375 8.125 C1.375 7.465 1.375 6.805 1.375 6.125 C0.385 6.125 -0.605 6.125 -1.625 6.125 Z " fill="#ffffffff" transform="translate(371.625,130.875)"/>
<path d="M0 0 C3.5625 0.1875 3.5625 0.1875 5.5625 2.1875 C5.5625 3.5075 5.5625 4.8275 5.5625 6.1875 C2.9225 6.1875 0.2825 6.1875 -2.4375 6.1875 C-2.4375 6.8475 -2.4375 7.5075 -2.4375 8.1875 C1.0275 7.6925 1.0275 7.6925 4.5625 7.1875 C4.5625 8.1775 4.5625 9.1675 4.5625 10.1875 C3.5625 11.1875 3.5625 11.1875 0.125 11.4375 C-1.050625 11.355 -2.22625 11.2725 -3.4375 11.1875 C-5.4375 8.1875 -5.4375 8.1875 -5.125 4.5625 C-4.24274345 0.23142237 -4.24274345 0.23142237 0 0 Z M-1.4375 2.1875 C-1.7675 2.8475 -2.0975 3.5075 -2.4375 4.1875 C-0.7875 4.1875 0.8625 4.1875 2.5625 4.1875 C2.2325 3.5275 1.9025 2.8675 1.5625 2.1875 C0.5725 2.1875 -0.4175 2.1875 -1.4375 2.1875 Z " fill="#ffffffff" transform="translate(184.4375,130.8125)"/>
<path d="M0 0 C0.99 0 1.98 0 3 0 C3.33 2.64 3.66 5.28 4 8 C4.99 7.67 5.98 7.34 7 7 C7.33 4.69 7.66 2.38 8 0 C8.99 0 9.98 0 11 0 C11 3.63 11 7.26 11 11 C4.1640625 11.1953125 4.1640625 11.1953125 2 11 C0 9 0 9 -0.1953125 6.8359375 C-0.17210937 6.02382812 -0.14890625 5.21171875 -0.125 4.375 C-0.10695313 3.55773437 -0.08890625 2.74046875 -0.0703125 1.8984375 C-0.04710937 1.27195313 -0.02390625 0.64546875 0 0 Z " fill="#ffffffff" transform="translate(310,131)"/>
<path d="M0 0 C6.8359375 -0.1953125 6.8359375 -0.1953125 9 0 C11 2 11 2 11.1953125 4.1640625 C11.17210938 4.97617188 11.14890625 5.78828125 11.125 6.625 C11.10695313 7.44226563 11.08890625 8.25953125 11.0703125 9.1015625 C11.03550781 10.04128906 11.03550781 10.04128906 11 11 C10.01 11 9.02 11 8 11 C7.67 8.36 7.34 5.72 7 3 C6.01 3.33 5.02 3.66 4 4 C3.67 6.31 3.34 8.62 3 11 C2.01 11 1.02 11 0 11 C0 7.37 0 3.74 0 0 Z " fill="#ffffffff" transform="translate(96,131)"/>
<path d="M0 0 C6.8359375 -0.29296875 6.8359375 -0.29296875 9 0 C11.67927341 4.01891012 11.15601248 6.24161923 11 11 C10.01 11 9.02 11 8 11 C7.67 8.36 7.34 5.72 7 3 C6.01 3.33 5.02 3.66 4 4 C3.67 6.31 3.34 8.62 3 11 C2.01 11 1.02 11 0 11 C0 7.37 0 3.74 0 0 Z " fill="#ffffffff" transform="translate(379,131)"/>
<path d="M0 0 C0.99 0 1.98 0 3 0 C3.33 2.64 3.66 5.28 4 8 C4.99 7.67 5.98 7.34 7 7 C7.33 4.69 7.66 2.38 8 0 C8.99 0 9.98 0 11 0 C11 3.63 11 7.26 11 11 C4.1640625 11.29296875 4.1640625 11.29296875 2 11 C-0.67927341 6.98108988 -0.15601248 4.75838077 0 0 Z " fill="#ffffffff" transform="translate(142,131)"/>
<path d="M0 0 C1.98 0 3.96 0 6 0 C6 1.32 6 2.64 6 4 C4.68 3.34 3.36 2.68 2 2 C2 2.66 2 3.32 2 4 C3.98 4.66 5.96 5.32 8 6 C7.125 9.875 7.125 9.875 6 11 C3.0625 11.25 3.0625 11.25 0 11 C-0.66 10.01 -1.32 9.02 -2 8 C-0.68 8 0.64 8 2 8 C2.66 7.67 3.32 7.34 4 7 C1.525 6.01 1.525 6.01 -1 5 C-0.67 3.35 -0.34 1.7 0 0 Z " fill="#ffffffff" transform="translate(275,131)"/>
<path d="M0 0 C1.98 0 3.96 0 6 0 C6 1.32 6 2.64 6 4 C4.68 3.34 3.36 2.68 2 2 C2 2.66 2 3.32 2 4 C3.98 4.66 5.96 5.32 8 6 C7.125 9.875 7.125 9.875 6 11 C3.0625 11.25 3.0625 11.25 0 11 C-0.66 10.01 -1.32 9.02 -2 8 C-0.68 8 0.64 8 2 8 C2.66 7.67 3.32 7.34 4 7 C1.525 6.01 1.525 6.01 -1 5 C-0.67 3.35 -0.34 1.7 0 0 Z " fill="#ffffffff" transform="translate(204,131)"/>
<path d="M0 0 C1.98 0 3.96 0 6 0 C6.33 0.99 6.66 1.98 7 3 C6.01 3.33 5.02 3.66 4 4 C4.99 4.66 5.98 5.32 7 6 C6.67 7.65 6.34 9.3 6 11 C3.69 11 1.38 11 -1 11 C-1 9.68 -1 8.36 -1 7 C0.98 7.495 0.98 7.495 3 8 C1.35 6.68 -0.3 5.36 -2 4 C-1.34 2.68 -0.68 1.36 0 0 Z " fill="#ffffffff" transform="translate(194,131)"/>
<path d="M0 0 C1.98 0 3.96 0 6 0 C6.33 0.99 6.66 1.98 7 3 C6.01 3.33 5.02 3.66 4 4 C4.99 4.66 5.98 5.32 7 6 C6.67 7.65 6.34 9.3 6 11 C3.69 11 1.38 11 -1 11 C-1 9.68 -1 8.36 -1 7 C0.98 7.495 0.98 7.495 3 8 C1.35 6.68 -0.3 5.36 -2 4 C-1.34 2.68 -0.68 1.36 0 0 Z " fill="#ffffffff" transform="translate(133,131)"/>
<path d="M0 0 C0.66 0.99 1.32 1.98 2 3 C-1 4 -1 4 -5 4 C-4.67 5.32 -4.34 6.64 -4 8 C-2.68 7.67 -1.36 7.34 0 7 C0.99 8.485 0.99 8.485 2 10 C-0.79870027 11.39935013 -2.90498792 11.25265405 -6 11 C-7.9375 9.9375 -7.9375 9.9375 -9 8 C-8.8125 4.375 -8.8125 4.375 -8 1 C-5.21136993 -0.39431504 -3.07921132 -0.25660094 0 0 Z " fill="#ffffffff" transform="translate(176,131)"/>
<path d="M0 0 C1.670625 0.061875 1.670625 0.061875 3.375 0.125 C3.375 1.445 3.375 2.765 3.375 4.125 C1.725 3.795 0.075 3.465 -1.625 3.125 C-1.955 4.445 -2.285 5.765 -2.625 7.125 C0.375 8.45833333 0.375 8.45833333 3.375 7.125 C3.375 8.445 3.375 9.765 3.375 11.125 C-3.05027261 11.60992623 -3.05027261 11.60992623 -5.625 9.4375 C-6.88826211 6.51620636 -6.64516252 5.10701353 -5.625 2.125 C-3.625 0.125 -3.625 0.125 0 0 Z " fill="#ffffffff" transform="translate(161.625,130.875)"/>
<path d="M0 0 C0 1.32 0 2.64 0 4 C-2.97 3.505 -2.97 3.505 -6 3 C-5.34 4.65 -4.68 6.3 -4 8 C-2.68 7.67 -1.36 7.34 0 7 C0 8.32 0 9.64 0 11 C-3.375 11.1875 -3.375 11.1875 -7 11 C-9 8 -9 8 -8.75 4.375 C-8.5025 3.26125 -8.255 2.1475 -8 1 C-5.29120665 -0.35439668 -2.99066732 -0.06501451 0 0 Z " fill="#ffffffff" transform="translate(307,131)"/>
<path d="M0 0 C1.32 0.33 2.64 0.66 4 1 C4.33 2.65 4.66 4.3 5 6 C5.66 6 6.32 6 7 6 C7.33 4.02 7.66 2.04 8 0 C9.32 0.33 10.64 0.66 12 1 C10.68 4.3 9.36 7.6 8 11 C6.68 11 5.36 11 4 11 C2.68 7.37 1.36 3.74 0 0 Z " fill="#ffffffff" transform="translate(77,131)"/>
<path d="M0 0 C0.99 0 1.98 0 3 0 C3 0.99 3 1.98 3 3 C3.99 3 4.98 3 6 3 C6 3.66 6 4.32 6 5 C5.01 5 4.02 5 3 5 C3 7.31 3 9.62 3 12 C3.99 12 4.98 12 6 12 C6 12.66 6 13.32 6 14 C4.33388095 14.042721 2.66617115 14.04063832 1 14 C0 13 0 13 -0.09765625 11.15234375 C-0.06510417 9.1015625 -0.03255208 7.05078125 0 5 C-0.99 5 -1.98 5 -3 5 C-3 4.34 -3 3.68 -3 3 C-2.01 3 -1.02 3 0 3 C0 2.01 0 1.02 0 0 Z " fill="#ffffffff" transform="translate(246,128)"/>
<path d="M0 0 C2.31 0 4.62 0 7 0 C7 0.66 7 1.32 7 2 C6.01 2.66 5.02 3.32 4 4 C3.26393501 7.56769552 3.26393501 7.56769552 3 11 C2.01 11 1.02 11 0 11 C0 7.37 0 3.74 0 0 Z " fill="#ffffffff" transform="translate(449,131)"/>
<path d="M0 0 C2.31 0 4.62 0 7 0 C7 0.66 7 1.32 7 2 C6.01 2.66 5.02 3.32 4 4 C3.26393501 7.56769552 3.26393501 7.56769552 3 11 C2.01 11 1.02 11 0 11 C0 7.37 0 3.74 0 0 Z " fill="#ffffffff" transform="translate(63,131)"/>
<path d="M0 0 C2.31 0 4.62 0 7 0 C7 0.66 7 1.32 7 2 C6.01 2.33 5.02 2.66 4 3 C3.67 5.64 3.34 8.28 3 11 C2.01 11 1.02 11 0 11 C0 7.37 0 3.74 0 0 Z " fill="#ffffffff" transform="translate(324,131)"/>
<path d="M0 0 C0.99 0 1.98 0 3 0 C3 3.63 3 7.26 3 11 C2.01 11 1.02 11 0 11 C0 7.37 0 3.74 0 0 Z " fill="#ffffffff" transform="translate(333,131)"/>
<path d="M0 0 C0.99 0 1.98 0 3 0 C3 3.63 3 7.26 3 11 C2.01 11 1.02 11 0 11 C0 7.37 0 3.74 0 0 Z " fill="#ffffffff" transform="translate(239,131)"/>
<path d="M0 0 C0.99 0 1.98 0 3 0 C3 3.63 3 7.26 3 11 C2.01 11 1.02 11 0 11 C0 7.37 0 3.74 0 0 Z " fill="#ffffffff" transform="translate(90,131)"/>
<path d="M0 0 C0.99 0 1.98 0 3 0 C3 3.63 3 7.26 3 11 C2.01 11 1.02 11 0 11 C0 7.37 0 3.74 0 0 Z " fill="#ffffffff" transform="translate(72,131)"/>
<path d="M0 0 C1.32 0 2.64 0 4 0 C4 0.66 4 1.32 4 2 C2.68 2 1.36 2 0 2 C0 1.34 0 0.68 0 0 Z " fill="#ffffffff" transform="translate(332,126)"/>
<path d="M0 0 C0.99 0 1.98 0 3 0 C3 0.66 3 1.32 3 2 C1.68 1.67 0.36 1.34 -1 1 C-0.67 0.67 -0.34 0.34 0 0 Z " fill="#ffffffff" transform="translate(239,126)"/>
<path d="M0 0 C1.32 0.33 2.64 0.66 4 1 C2.68 1.33 1.36 1.66 0 2 C0 1.34 0 0.68 0 0 Z " fill="#ffffffff" transform="translate(90,126)"/>
<path d="M0 0 C1.32 0.33 2.64 0.66 4 1 C2.68 1.33 1.36 1.66 0 2 C0 1.34 0 0.68 0 0 Z " fill="#ffffffff" transform="translate(72,126)"/>
</svg>
