<svg width="1200" height="300" viewBox="0 0 1200 300" fill="none" xmlns="http://www.w3.org/2000/svg">
<path d="M109.846 255.624C81.0296 255.624 54.0541 245.608 33.8871 227.422C13.651 209.175 1.6215 183.935 0.0119955 156.353C-0.213915 152.476 2.7782 149.151 6.69528 148.928C10.6298 148.693 13.9719 151.665 14.1978 155.542C15.5902 179.434 25.9811 201.27 43.4557 217.028C61.0002 232.849 84.5774 241.561 109.844 241.561C138.694 241.561 163.833 230.098 180.104 209.821C180.636 209.161 180.466 208.183 179.752 207.721L146.776 186.323C145.884 185.745 144.702 185.795 143.894 186.483C133.48 195.346 116.963 201.622 103.629 201.622C59.54 201.622 25.4682 168.547 24.3736 124.686C23.8897 105.238 31.1518 86.2565 44.8228 71.2353C58.4434 56.2678 76.97 46.8438 96.9888 44.6963C138.662 40.2601 177.028 57.2543 197.135 89.0422L198.924 91.8721C199.982 93.5455 199.495 95.7487 197.825 96.8302L152.486 126.255C152.486 126.255 149.259 128.45 148.506 129C145.694 131.055 141.787 130.78 139.298 128.349C137.959 127.043 134.151 123.365 132.628 122.057C127.057 117.27 120.493 114.272 113.645 113.383C110.758 113.012 107.841 113.005 104.983 113.367C88.504 115.433 74.8912 128.692 72.573 144.915C72.0436 148.619 68.6278 151.405 64.865 151.055C60.8102 150.678 57.9305 147.04 58.4832 143.09C61.6236 120.638 80.4266 102.271 103.193 99.4163C107.251 98.9058 111.389 98.9125 115.483 99.4383C125.114 100.688 134.261 104.836 141.944 111.438C142.407 111.836 142.988 112.361 143.621 112.944C144.437 113.698 145.67 113.805 146.605 113.201L179.808 91.6936C180.522 91.2311 180.692 90.2561 180.164 89.5939C162.003 66.899 131.523 55.1672 98.5169 58.6783C81.9828 60.4526 66.6616 68.2539 55.3834 80.6469C44.1538 92.986 38.1871 108.502 38.5817 124.339C39.4961 160.972 66.8526 187.559 103.63 187.559C114.088 187.559 128.232 181.932 135.827 174.748L136.267 174.364C136.845 173.902 138.677 172.269 139.792 171.257C142.208 169.065 145.825 168.795 148.548 170.601C148.548 170.601 152.33 173.111 152.654 173.322L197.768 202.593C199.477 203.703 199.97 205.967 198.87 207.674L197.082 210.449C178.856 238.738 146.246 255.625 109.846 255.625L109.846 255.624Z" fill="url(#paint0_linear_1677_448)"/>
<mask id="mask0_1677_448" style="mask-type:luminance" maskUnits="userSpaceOnUse" x="246" y="63" width="954" height="174">
<path d="M1199.3 63H246.234V236.158H1199.3V63Z" fill="white"/>
</mask>
<g mask="url(#mask0_1677_448)">
<path d="M247.324 149.447C247.324 121.597 269.329 100.2 297.288 100.2C318.155 100.2 334.784 111.717 342.264 128.299C342.483 128.782 342.249 129.358 341.766 129.561L325.122 136.59C324.654 136.792 324.124 136.574 323.906 136.122C319.059 125.758 309.646 119.306 297.74 119.151C283.293 118.964 270.529 129.483 267.974 143.556C264.467 162.787 278.446 179.774 297.677 179.774C310.348 179.774 319.745 172.231 324.296 162.054C324.498 161.587 325.044 161.369 325.511 161.571L342.311 168.6C342.81 168.803 343.044 169.379 342.81 169.862C335.002 186.818 319.277 198.709 297.272 198.709C268.955 198.693 247.324 176.719 247.324 149.447Z" fill="black"/>
<path d="M246.234 149.836C246.234 121.644 268.489 99.9663 296.743 99.9663C317.845 99.9663 334.66 111.639 342.203 128.423C342.421 128.907 342.188 129.483 341.689 129.701L324.873 136.823C324.406 137.026 323.86 136.808 323.642 136.34C318.733 125.836 309.227 119.322 297.195 119.151C282.593 118.964 269.689 129.608 267.102 143.852C263.564 163.317 277.699 180.522 297.133 180.522C309.943 180.522 319.45 172.886 324.047 162.584C324.266 162.117 324.795 161.883 325.279 162.086L342.266 169.208C342.764 169.41 342.998 170.003 342.78 170.486C334.894 187.66 318.998 199.691 296.743 199.691C268.099 199.707 246.234 177.452 246.234 149.836Z" fill="black"/>
<path d="M388.878 177.795C388.488 178.761 387.335 178.761 386.961 177.795L362.774 101.961C362.587 101.384 362.197 100.995 361.621 100.995H341.47C340.707 100.995 340.504 101.384 340.707 101.961L372.187 195.265C373.73 200.065 375.444 204.678 375.444 208.512C375.444 214.075 372.374 217.925 364.317 217.925H341.86C341.283 217.925 340.894 218.314 340.894 218.891V235.208C340.894 235.784 341.283 236.174 341.86 236.174H368.353C386.213 236.174 392.353 228.491 399.07 208.714L434.977 101.977C435.164 101.213 434.587 101.01 434.01 101.01H414.234C413.657 101.01 413.268 101.4 413.081 101.977L388.894 177.81L388.878 177.795Z" fill="black"/>
<path d="M467.269 190.091C472.256 195.078 483.586 200.081 493.186 200.081C520.833 200.081 538.1 179.54 538.1 149.587C538.1 119.634 519.866 99.0935 493.186 99.0935C477.056 99.0935 467.659 108.304 466.692 109.27C466.116 109.847 465.15 109.27 465.15 108.694V63.9662C465.15 63.3896 464.76 63 464.183 63H445.56C444.983 63 444.594 63.3896 444.594 63.9662V197.197C444.594 197.774 444.983 198.164 445.56 198.164H461.877C462.64 198.164 463.03 197.977 463.217 197.197L465.134 190.294C465.524 189.327 466.474 189.327 467.238 190.106L467.269 190.091ZM517.373 149.587C517.373 168.21 507.773 181.457 490.303 181.457C473.986 181.457 465.15 168.21 465.15 149.587C465.15 130.013 473.986 117.904 490.303 117.904C507.773 117.904 517.373 130.964 517.373 149.587Z" fill="black"/>
<path d="M640.785 156.304C641.175 154.574 641.549 152.47 641.549 149.587C641.549 119.634 623.689 99.0935 594.702 99.0935C565.715 99.0935 547.855 119.447 547.855 149.587C547.855 179.727 566.292 200.081 594.702 200.081C616.396 200.081 633.679 189.14 638.276 170.33V170.143C638.276 169.753 637.7 169.379 637.31 169.379H617.533C616.77 169.379 616.38 169.769 616.193 170.345C612.546 177.452 605.642 181.473 594.687 181.473C579.336 181.473 569.533 170.532 569.533 158.252C569.533 157.675 569.923 157.286 570.5 157.286H639.804C640.38 157.286 640.567 156.896 640.754 156.319L640.785 156.304ZM570.531 140.564C569.954 140.564 569.565 140.174 569.565 139.597C569.565 131.338 577.622 117.904 594.718 117.904C611.814 117.904 619.294 130.387 619.294 139.597C619.294 140.174 618.905 140.564 618.328 140.564H570.531Z" fill="black"/>
<path d="M707.783 118.293C708.359 118.293 708.749 117.904 708.749 117.327V100.044C708.749 99.4675 708.359 99.0779 707.783 99.0779H697.606C688.396 99.0779 681.476 103.488 675.336 109.644C674.759 110.221 673.809 110.221 673.419 109.255L671.502 102.148C671.315 101.384 670.926 100.995 670.162 100.995H653.658C653.269 100.995 652.895 101.384 652.895 101.961V197.182C652.895 197.758 653.284 198.148 653.658 198.148H672.469C673.045 198.148 673.435 197.758 673.435 197.182V143.618C673.435 130.371 681.118 118.278 696.656 118.278H707.783V118.293Z" fill="black"/>
<path d="M807.273 198.148C807.85 198.148 808.24 197.758 808.24 197.182V144.584C808.24 120.008 795.959 99.0935 766.972 99.0935C756.032 99.0935 746.619 104.657 742.972 109.457C742.396 110.221 740.853 110.221 740.853 109.068V63.9662C740.853 63.3896 740.463 63 739.886 63H721.263C720.686 63 720.297 63.3896 720.297 63.9662V197.197C720.297 197.774 720.686 198.164 721.263 198.164H739.886C740.463 198.164 740.853 197.774 740.853 197.197V143.634C740.853 130.387 748.536 118.294 764.073 118.294C781.154 118.294 787.497 131.54 787.497 144.6V197.197C787.497 197.774 787.886 198.164 788.463 198.164H807.273V198.148Z" fill="black"/>
<path d="M890.68 188.938C891.257 188.361 892.02 188.548 892.41 189.125C895.667 194.891 901.433 198.148 911.999 198.148H919.682C920.259 198.148 920.649 197.758 920.649 197.182V181.442C920.649 180.865 920.259 180.475 919.682 180.475H915.459C911.423 180.475 908.742 177.592 908.742 174.132V134.782C908.742 110.984 892.238 99.0779 865.745 99.0779C843.475 99.0779 823.511 110.205 823.511 132.865C823.511 133.442 823.901 133.831 824.477 133.831H843.101C843.677 133.831 844.067 133.442 844.067 132.865C844.254 124.808 850.207 117.888 865.76 117.888C886.488 117.888 888.218 127.878 888.218 133.816C888.218 136.122 886.098 139.192 882.077 139.192H862.301C834.28 139.192 820.254 152.626 820.254 169.332C820.254 187.192 832.534 200.049 858.451 200.049C874.768 200.049 885.895 193.909 890.695 188.922L890.68 188.938ZM858.436 181.457C845.002 181.457 840.779 174.74 840.779 169.364C840.779 163.41 844.036 155.93 862.862 155.93H887.236C887.812 155.93 888.202 156.319 888.202 156.896V158.236C888.015 168.99 879.942 181.457 858.451 181.457H858.436Z" fill="black"/>
<path d="M962.418 177.795C962.028 178.761 960.875 178.761 960.501 177.795L936.314 102.164C936.127 101.587 935.737 101.01 935.161 101.01H915.384C914.62 101.01 914.044 101.4 914.231 102.164L946.491 197.198C946.678 197.774 947.067 198.164 947.644 198.164H975.291C975.867 198.164 976.257 197.774 976.444 197.198L1008.5 102.164C1008.69 101.4 1008.11 101.01 1007.55 101.01H987.961C987.384 101.01 986.807 101.587 986.62 102.164L962.433 177.795H962.418Z" fill="black"/>
<path d="M1101.21 156.304C1101.6 154.574 1101.97 152.47 1101.97 149.587C1101.97 119.634 1084.12 99.0935 1055.13 99.0935C1026.14 99.0935 1008.28 119.447 1008.28 149.587C1008.28 179.727 1026.72 200.081 1055.13 200.081C1076.82 200.081 1094.1 189.14 1098.7 170.33V170.143C1098.7 169.753 1098.13 169.379 1097.74 169.379H1077.96C1077.2 169.379 1076.81 169.769 1076.62 170.345C1072.97 177.452 1066.07 181.473 1055.11 181.473C1039.76 181.473 1029.96 170.532 1029.96 158.252C1029.96 157.675 1030.35 157.286 1030.93 157.286H1100.23C1100.81 157.286 1100.99 156.896 1101.2 156.319L1101.21 156.304ZM1030.94 140.564C1030.36 140.564 1029.97 140.174 1029.97 139.597C1029.97 131.338 1038.03 117.904 1055.13 117.904C1072.22 117.904 1079.7 130.387 1079.7 139.597C1079.7 140.174 1079.32 140.564 1078.74 140.564H1030.94Z" fill="black"/>
<path d="M1134.03 109.457C1133.45 110.034 1132.3 110.423 1131.91 109.27L1129.99 101.977C1129.81 101.4 1129.42 101.01 1128.65 101.01H1112.34C1111.76 101.01 1111.37 101.4 1111.37 101.977V197.197C1111.37 197.774 1111.76 198.164 1112.34 198.164H1130.96C1131.54 198.164 1131.93 197.774 1131.93 197.197V143.634C1131.93 130.387 1139.61 117.904 1155.16 117.904C1172.24 117.904 1178.59 131.54 1178.59 144.584V197.182C1178.59 197.758 1178.98 198.148 1179.55 198.148H1198.36C1198.94 198.148 1199.33 197.758 1199.33 197.182V144.584C1199.33 120.008 1187.05 99.0935 1158.06 99.0935C1147.7 99.0935 1137.9 104.283 1134.06 109.457H1134.03Z" fill="black"/>
</g>
<defs>
<linearGradient id="paint0_linear_1677_448" x1="142.04" y1="275.575" x2="80.6405" y2="59.2191" gradientUnits="userSpaceOnUse">
<stop offset="0.177" stop-color="#F413F7"/>
<stop offset="0.528" stop-color="#722EF2"/>
<stop offset="0.849" stop-color="#0047EE"/>
</linearGradient>
</defs>
</svg>
