<?xml version="1.0" encoding="utf-8"?>
<!-- Generator: Adobe Illustrator 28.3.0, SVG Export Plug-In . SVG Version: 6.00 Build 0)  -->
<svg version="1.1" id="Layer_1" xmlns="http://www.w3.org/2000/svg" xmlns:xlink="http://www.w3.org/1999/xlink" x="0px" y="0px"
	 viewBox="0 0 150 69.5" style="enable-background:new 0 0 150 69.5;" xml:space="preserve">
<style type="text/css">
	.st0{fill:#FFFFFF;stroke:#231F20;stroke-miterlimit:10;}
	.st1{fill:url(#SVGID_1_);}
	.st2{fill:#253746;}
</style>
<g id="Layer_2_00000064328294436397457870000016086951136756219317_">
	<path class="st0" d="M149.5,55.6"/>
</g>
<g>
	
		<linearGradient id="SVGID_1_" gradientUnits="userSpaceOnUse" x1="24.7364" y1="192.1746" x2="4.3044" y2="162.9938" gradientTransform="matrix(1 0 0 1 0 -160)">
		<stop  offset="0" style="stop-color:#B1E001"/>
		<stop  offset="0.5" style="stop-color:#FF6D15"/>
		<stop  offset="1" style="stop-color:#FF00C0"/>
	</linearGradient>
	<path class="st1" d="M15.5,3.5C7,3.5,0,10.5,0,19s7,15.5,15.5,15.5s15.5-7,15.5-15.5S24.1,3.5,15.5,3.5z M15.5,27.8
		c-4.8,0-8.8-3.9-8.8-8.8s3.9-8.8,8.8-8.8s8.8,3.9,8.8,8.8S20.4,27.8,15.5,27.8z"/>
	<path class="st2" d="M136.8,66.9h-9.6V19h9.6V66.9z"/>
	<polygon class="st2" points="92.2,38.2 92.2,19 82.7,19 82.7,66.9 92.2,66.9 92.2,47.8 101.7,47.8 111.2,38.2 	"/>
	<path class="st2" d="M38.1,33.4c0-2,0.4-3.9,1.1-5.6c0.8-1.7,1.8-3.3,3.1-4.6c1.3-1.3,2.8-2.3,4.6-3.1c1.7-0.8,3.6-1.1,5.6-1.1H81
		l-9.5,9.6h-19c-0.7,0-1.3,0.1-1.9,0.4c-0.6,0.2-1.1,0.6-1.5,1c-0.5,0.5-0.8,1-1,1.5c-0.2,0.6-0.4,1.2-0.4,1.9s0.1,1.3,0.4,1.9
		c0.2,0.6,0.6,1.1,1,1.5c0.5,0.5,1,0.8,1.5,1c0.6,0.2,1.2,0.4,1.9,0.4h9.6c2,0,3.9,0.4,5.6,1.1c1.8,0.7,3.3,1.8,4.6,3.1
		c1.3,1.3,2.3,2.8,3.1,4.6c0.7,1.8,1.1,3.6,1.1,5.6c0,2-0.4,3.9-1.1,5.6c-0.7,1.7-1.8,3.3-3.1,4.6c-1.3,1.3-2.8,2.3-4.6,3.1
		S64,67,62.1,67h-31l9.7-9.6h21.3c0.7,0,1.3-0.1,1.9-0.4c0.6-0.2,1.1-0.6,1.5-1c0.5-0.5,0.8-1,1-1.5s0.4-1.2,0.4-1.9
		c0-0.7-0.1-1.3-0.4-1.9c-0.2-0.6-0.6-1.1-1-1.5c-0.5-0.5-1-0.8-1.5-1c-0.6-0.2-1.2-0.4-1.9-0.4h-9.6c-2,0-3.9-0.4-5.6-1.1
		c-1.7-0.8-3.3-1.8-4.6-3.1C41,42.3,40,40.8,39.2,39C38.5,37.3,38.1,35.4,38.1,33.4L38.1,33.4z"/>
	<path class="st2" d="M121,66.9h-9.6V19h9.6V66.9L121,66.9z"/>
	<path class="st2" d="M143,63.2c0-0.7,0.1-1.3,0.5-1.9c0.3-0.6,0.7-1,1.3-1.4c0.5-0.3,1.1-0.5,1.8-0.5s1.2,0.2,1.8,0.5
		s1,0.8,1.3,1.4c0.3,0.6,0.5,1.2,0.5,1.9s-0.1,1.3-0.5,1.9c-0.3,0.6-0.7,1-1.3,1.4c-0.5,0.4-1.1,0.5-1.8,0.5c-0.7,0-1.3-0.2-1.8-0.5
		c-0.5-0.4-1-0.8-1.3-1.4C143.2,64.5,143,63.8,143,63.2L143,63.2z M143.6,63.2c0,0.6,0.1,1.1,0.4,1.6s0.6,0.9,1.1,1.1
		c0.5,0.3,1,0.4,1.5,0.4c0.5,0,1-0.1,1.5-0.4c0.5-0.3,0.8-0.7,1.1-1.1c0.3-0.5,0.4-1,0.4-1.6s-0.1-1.1-0.4-1.6
		c-0.3-0.5-0.6-0.9-1.1-1.1s-1-0.4-1.5-0.4s-1,0.1-1.5,0.4s-0.8,0.6-1.1,1.1S143.6,62.6,143.6,63.2L143.6,63.2z M145.8,63.6v1.7
		h-0.7V61h1.4c0.5,0,0.9,0.1,1.2,0.3s0.4,0.5,0.4,1c0,0.4-0.2,0.7-0.6,1c0.4,0.2,0.6,0.5,0.6,1v0.3c0,0.3,0,0.5,0.1,0.6v0.1h-0.7
		c0-0.1-0.1-0.3-0.1-0.6s0-0.5,0-0.5c0-0.3-0.3-0.5-0.6-0.5L145.8,63.6L145.8,63.6z M145.8,62.9h0.8c0.2,0,0.5,0,0.6-0.2
		c0.1-0.1,0.2-0.3,0.2-0.5c0-0.2,0-0.4-0.2-0.5c-0.1-0.1-0.4-0.1-0.7-0.1h-0.7L145.8,62.9L145.8,62.9z"/>
</g>
</svg>
